<mxfile host="65bd71144e">
    <diagram id="7wXE5Q4RGX4zJAWBZGyW" name="Page-1">
        <mxGraphModel dx="871" dy="626" grid="1" gridSize="10" guides="1" tooltips="1" connect="1" arrows="1" fold="1" page="1" pageScale="1" pageWidth="850" pageHeight="1100" math="0" shadow="0">
            <root>
                <mxCell id="0"/>
                <mxCell id="1" parent="0"/>
                <mxCell id="2" value="リバーシ&lt;br&gt;アプリケーション" style="whiteSpace=wrap;html=1;aspect=fixed;horizontal=1;verticalAlign=top;labelBackgroundColor=#;strokeWidth=1;strokeColor=default;fillStyle=auto;fillColor=none;gradientColor=default;" vertex="1" parent="1">
                    <mxGeometry x="220" y="300" width="400" height="400" as="geometry"/>
                </mxCell>
                <mxCell id="3" value="対戦する" style="ellipse;whiteSpace=wrap;html=1;labelBackgroundColor=#;sketch=0;fillStyle=auto;strokeColor=default;strokeWidth=1;fillColor=none;gradientColor=default;" vertex="1" parent="1">
                    <mxGeometry x="350" y="470" width="140" height="80" as="geometry"/>
                </mxCell>
                <mxCell id="4" value="プレイヤー" style="shape=umlActor;verticalLabelPosition=bottom;verticalAlign=top;html=1;labelBackgroundColor=#;sketch=0;fillStyle=auto;strokeColor=default;strokeWidth=1;fillColor=none;gradientColor=default;" vertex="1" parent="1">
                    <mxGeometry x="70" y="440" width="50" height="80" as="geometry"/>
                </mxCell>
                <mxCell id="5" value="" style="endArrow=none;html=1;edgeStyle=orthogonalEdgeStyle;" edge="1" parent="1" target="3">
                    <mxGeometry relative="1" as="geometry">
                        <mxPoint x="130" y="480" as="sourcePoint"/>
                        <mxPoint x="290" y="480" as="targetPoint"/>
                    </mxGeometry>
                </mxCell>
                <mxCell id="9" value="&lt;font style=&quot;font-size: 14px;&quot;&gt;・対戦する&lt;br&gt;・石を打つ&lt;br&gt;・碁盤を見る&lt;/font&gt;" style="shape=note;whiteSpace=wrap;html=1;backgroundOutline=1;darkOpacity=0.05;labelBackgroundColor=#;sketch=0;fillStyle=auto;strokeColor=#d79b00;strokeWidth=1;fillColor=#ffe6cc;align=left;" vertex="1" parent="1">
                    <mxGeometry x="470" y="350" width="140" height="70" as="geometry"/>
                </mxCell>
                <mxCell id="10" value="" style="endArrow=none;dashed=1;html=1;dashPattern=1 3;strokeWidth=2;fontSize=14;exitX=1;exitY=0;exitDx=0;exitDy=0;" edge="1" parent="1" source="3" target="9">
                    <mxGeometry width="50" height="50" relative="1" as="geometry">
                        <mxPoint x="470" y="520" as="sourcePoint"/>
                        <mxPoint x="520" y="470" as="targetPoint"/>
                    </mxGeometry>
                </mxCell>
            </root>
        </mxGraphModel>
    </diagram>
</mxfile>